<?xml version="1.0" encoding="utf-8"?>
<!-- Generator: Adobe Illustrator 26.0.3, SVG Export Plug-In . SVG Version: 6.00 Build 0)  -->
<svg version="1.1" id="Layer_1" xmlns="http://www.w3.org/2000/svg" xmlns:xlink="http://www.w3.org/1999/xlink" x="0px" y="0px"
	 viewBox="0 0 1441 645" style="enable-background:new 0 0 1441 645;" xml:space="preserve">
<style type="text/css">
	.st0{opacity:0.35;}
	.st1{opacity:0.35;fill:none;stroke:#8E8E8E;stroke-width:0.75;stroke-miterlimit:10;enable-background:new    ;}
</style>
<g class="st0">
	<path class="st1" d="M69.2,1H0.7v53.6h68.6V1z"/>
	<path class="st1" d="M137.8,1H69.2v53.6h68.6V1z"/>
	<path class="st1" d="M206.4,1h-68.6v53.6h68.6V1z"/>
	<path class="st1" d="M275,1h-68.6v53.6H275V1z"/>
	<path class="st1" d="M343.5,1H275v53.6h68.6V1z"/>
	<path class="st1" d="M412.1,1h-68.6v53.6h68.6V1z"/>
	<path class="st1" d="M480.7,1h-68.6v53.6h68.6V1z"/>
	<path class="st1" d="M549.3,1h-68.6v53.6h68.6V1z"/>
	<path class="st1" d="M617.8,1h-68.6v53.6h68.6V1z"/>
	<path class="st1" d="M686.4,1h-68.6v53.6h68.6V1z"/>
	<path class="st1" d="M755,1h-68.6v53.6H755V1z"/>
	<path class="st1" d="M823.6,1H755v53.6h68.6V1z"/>
	<path class="st1" d="M892.1,1h-68.6v53.6h68.6V1z"/>
	<path class="st1" d="M960.7,1h-68.6v53.6h68.6V1z"/>
	<path class="st1" d="M1029.3,1h-68.6v53.6h68.6V1z"/>
	<path class="st1" d="M1097.9,1h-68.6v53.6h68.6V1z"/>
	<path class="st1" d="M1166.4,1h-68.6v53.6h68.6V1z"/>
	<path class="st1" d="M1235,1h-68.6v53.6h68.6V1z"/>
	<path class="st1" d="M1303.6,1H1235v53.6h68.6V1z"/>
	<path class="st1" d="M1372.2,1h-68.6v53.6h68.6V1z"/>
	<path class="st1" d="M1440.8,1h-68.6v53.6h68.6V1z"/>
	<path class="st1" d="M69.2,54.6H0.7v53.6h68.6V54.6z"/>
	<path class="st1" d="M137.8,54.6H69.2v53.6h68.6V54.6z"/>
	<path class="st1" d="M206.4,54.6h-68.6v53.6h68.6V54.6z"/>
	<path class="st1" d="M275,54.6h-68.6v53.6H275V54.6z"/>
	<path class="st1" d="M343.5,54.6H275v53.6h68.6V54.6z"/>
	<path class="st1" d="M412.1,54.6h-68.6v53.6h68.6V54.6z"/>
	<path class="st1" d="M480.7,54.6h-68.6v53.6h68.6V54.6z"/>
	<path class="st1" d="M549.3,54.6h-68.6v53.6h68.6V54.6z"/>
	<path class="st1" d="M617.8,54.6h-68.6v53.6h68.6V54.6z"/>
	<path class="st1" d="M686.4,54.6h-68.6v53.6h68.6V54.6z"/>
	<path class="st1" d="M755,54.6h-68.6v53.6H755V54.6z"/>
	<path class="st1" d="M823.6,54.6H755v53.6h68.6V54.6z"/>
	<path class="st1" d="M892.1,54.6h-68.6v53.6h68.6V54.6z"/>
	<path class="st1" d="M960.7,54.6h-68.6v53.6h68.6V54.6z"/>
	<path class="st1" d="M1029.3,54.6h-68.6v53.6h68.6V54.6z"/>
	<path class="st1" d="M1097.9,54.6h-68.6v53.6h68.6V54.6z"/>
	<path class="st1" d="M1166.4,54.6h-68.6v53.6h68.6V54.6z"/>
	<path class="st1" d="M1235,54.6h-68.6v53.6h68.6V54.6z"/>
	<path class="st1" d="M1303.6,54.6H1235v53.6h68.6V54.6z"/>
	<path class="st1" d="M1372.2,54.6h-68.6v53.6h68.6V54.6z"/>
	<path class="st1" d="M1440.8,54.6h-68.6v53.6h68.6V54.6z"/>
	<path class="st1" d="M69.2,108.2H0.7v53.6h68.6V108.2z"/>
	<path class="st1" d="M137.8,108.2H69.2v53.6h68.6V108.2z"/>
	<path class="st1" d="M206.4,108.2h-68.6v53.6h68.6V108.2z"/>
	<path class="st1" d="M275,108.2h-68.6v53.6H275V108.2z"/>
	<path class="st1" d="M343.5,108.2H275v53.6h68.6V108.2z"/>
	<path class="st1" d="M412.1,108.2h-68.6v53.6h68.6V108.2z"/>
	<path class="st1" d="M480.7,108.2h-68.6v53.6h68.6V108.2z"/>
	<path class="st1" d="M549.3,108.2h-68.6v53.6h68.6V108.2z"/>
	<path class="st1" d="M617.8,108.2h-68.6v53.6h68.6V108.2z"/>
	<path class="st1" d="M686.4,108.2h-68.6v53.6h68.6V108.2z"/>
	<path class="st1" d="M755,108.2h-68.6v53.6H755V108.2z"/>
	<path class="st1" d="M823.6,108.2H755v53.6h68.6V108.2z"/>
	<path class="st1" d="M892.1,108.2h-68.6v53.6h68.6V108.2z"/>
	<path class="st1" d="M960.7,108.2h-68.6v53.6h68.6V108.2z"/>
	<path class="st1" d="M1029.3,108.2h-68.6v53.6h68.6V108.2z"/>
	<path class="st1" d="M1097.9,108.2h-68.6v53.6h68.6V108.2z"/>
	<path class="st1" d="M1166.4,108.2h-68.6v53.6h68.6V108.2z"/>
	<path class="st1" d="M1235,108.2h-68.6v53.6h68.6V108.2z"/>
	<path class="st1" d="M1303.6,108.2H1235v53.6h68.6V108.2z"/>
	<path class="st1" d="M1372.2,108.2h-68.6v53.6h68.6V108.2z"/>
	<path class="st1" d="M1440.8,108.2h-68.6v53.6h68.6V108.2z"/>
	<path class="st1" d="M69.2,161.8H0.7v53.6h68.6V161.8z"/>
	<path class="st1" d="M137.8,161.8H69.2v53.6h68.6V161.8z"/>
	<path class="st1" d="M206.4,161.8h-68.6v53.6h68.6V161.8z"/>
	<path class="st1" d="M275,161.8h-68.6v53.6H275V161.8z"/>
	<path class="st1" d="M343.5,161.8H275v53.6h68.6V161.8z"/>
	<path class="st1" d="M412.1,161.8h-68.6v53.6h68.6V161.8z"/>
	<path class="st1" d="M480.7,161.8h-68.6v53.6h68.6V161.8z"/>
	<path class="st1" d="M549.3,161.8h-68.6v53.6h68.6V161.8z"/>
	<path class="st1" d="M617.8,161.8h-68.6v53.6h68.6V161.8z"/>
	<path class="st1" d="M686.4,161.8h-68.6v53.6h68.6V161.8z"/>
	<path class="st1" d="M755,161.8h-68.6v53.6H755V161.8z"/>
	<path class="st1" d="M823.6,161.8H755v53.6h68.6V161.8z"/>
	<path class="st1" d="M892.1,161.8h-68.6v53.6h68.6V161.8z"/>
	<path class="st1" d="M960.7,161.8h-68.6v53.6h68.6V161.8z"/>
	<path class="st1" d="M1029.3,161.8h-68.6v53.6h68.6V161.8z"/>
	<path class="st1" d="M1097.9,161.8h-68.6v53.6h68.6V161.8z"/>
	<path class="st1" d="M1166.4,161.8h-68.6v53.6h68.6V161.8z"/>
	<path class="st1" d="M1235,161.8h-68.6v53.6h68.6V161.8z"/>
	<path class="st1" d="M1303.6,161.8H1235v53.6h68.6V161.8z"/>
	<path class="st1" d="M1372.2,161.8h-68.6v53.6h68.6V161.8z"/>
	<path class="st1" d="M1440.8,161.8h-68.6v53.6h68.6V161.8z"/>
	<path class="st1" d="M69.2,215.3H0.7v53.6h68.6V215.3z"/>
	<path class="st1" d="M137.8,215.3H69.2v53.6h68.6V215.3z"/>
	<path class="st1" d="M206.4,215.3h-68.6v53.6h68.6V215.3z"/>
	<path class="st1" d="M275,215.3h-68.6v53.6H275V215.3z"/>
	<path class="st1" d="M343.5,215.3H275v53.6h68.6V215.3z"/>
	<path class="st1" d="M412.1,215.3h-68.6v53.6h68.6V215.3z"/>
	<path class="st1" d="M480.7,215.3h-68.6v53.6h68.6V215.3z"/>
	<path class="st1" d="M549.3,215.3h-68.6v53.6h68.6V215.3z"/>
	<path class="st1" d="M617.8,215.3h-68.6v53.6h68.6V215.3z"/>
	<path class="st1" d="M686.4,215.3h-68.6v53.6h68.6V215.3z"/>
	<path class="st1" d="M755,215.3h-68.6v53.6H755V215.3z"/>
	<path class="st1" d="M823.6,215.3H755v53.6h68.6V215.3z"/>
	<path class="st1" d="M892.1,215.3h-68.6v53.6h68.6V215.3z"/>
	<path class="st1" d="M960.7,215.3h-68.6v53.6h68.6V215.3z"/>
	<path class="st1" d="M1029.3,215.3h-68.6v53.6h68.6V215.3z"/>
	<path class="st1" d="M1097.9,215.3h-68.6v53.6h68.6V215.3z"/>
	<path class="st1" d="M1166.4,215.3h-68.6v53.6h68.6V215.3z"/>
	<path class="st1" d="M1235,215.3h-68.6v53.6h68.6V215.3z"/>
	<path class="st1" d="M1303.6,215.3H1235v53.6h68.6V215.3z"/>
	<path class="st1" d="M1372.2,215.3h-68.6v53.6h68.6V215.3z"/>
	<path class="st1" d="M1440.8,215.3h-68.6v53.6h68.6V215.3z"/>
	<path class="st1" d="M69.2,268.9H0.7v53.6h68.6V268.9z"/>
	<path class="st1" d="M137.8,268.9H69.2v53.6h68.6V268.9z"/>
	<path class="st1" d="M206.4,268.9h-68.6v53.6h68.6V268.9z"/>
	<path class="st1" d="M275,268.9h-68.6v53.6H275V268.9z"/>
	<path class="st1" d="M343.5,268.9H275v53.6h68.6V268.9z"/>
	<path class="st1" d="M412.1,268.9h-68.6v53.6h68.6V268.9z"/>
	<path class="st1" d="M480.7,268.9h-68.6v53.6h68.6V268.9z"/>
	<path class="st1" d="M549.3,268.9h-68.6v53.6h68.6V268.9z"/>
	<path class="st1" d="M617.8,268.9h-68.6v53.6h68.6V268.9z"/>
	<path class="st1" d="M686.4,268.9h-68.6v53.6h68.6V268.9z"/>
	<path class="st1" d="M755,268.9h-68.6v53.6H755V268.9z"/>
	<path class="st1" d="M823.6,268.9H755v53.6h68.6V268.9z"/>
	<path class="st1" d="M892.1,268.9h-68.6v53.6h68.6V268.9z"/>
	<path class="st1" d="M960.7,268.9h-68.6v53.6h68.6V268.9z"/>
	<path class="st1" d="M1029.3,268.9h-68.6v53.6h68.6V268.9z"/>
	<path class="st1" d="M1097.9,268.9h-68.6v53.6h68.6V268.9z"/>
	<path class="st1" d="M1166.4,268.9h-68.6v53.6h68.6V268.9z"/>
	<path class="st1" d="M1235,268.9h-68.6v53.6h68.6V268.9z"/>
	<path class="st1" d="M1303.6,268.9H1235v53.6h68.6V268.9z"/>
	<path class="st1" d="M1372.2,268.9h-68.6v53.6h68.6V268.9z"/>
	<path class="st1" d="M1440.8,268.9h-68.6v53.6h68.6V268.9z"/>
	<path class="st1" d="M69.2,322.5H0.7v53.6h68.6V322.5z"/>
	<path class="st1" d="M137.8,322.5H69.2v53.6h68.6V322.5z"/>
	<path class="st1" d="M206.4,322.5h-68.6v53.6h68.6V322.5z"/>
	<path class="st1" d="M275,322.5h-68.6v53.6H275V322.5z"/>
	<path class="st1" d="M343.5,322.5H275v53.6h68.6V322.5z"/>
	<path class="st1" d="M412.1,322.5h-68.6v53.6h68.6V322.5z"/>
	<path class="st1" d="M480.7,322.5h-68.6v53.6h68.6V322.5z"/>
	<path class="st1" d="M549.3,322.5h-68.6v53.6h68.6V322.5z"/>
	<path class="st1" d="M617.8,322.5h-68.6v53.6h68.6V322.5z"/>
	<path class="st1" d="M686.4,322.5h-68.6v53.6h68.6V322.5z"/>
	<path class="st1" d="M755,322.5h-68.6v53.6H755V322.5z"/>
	<path class="st1" d="M823.6,322.5H755v53.6h68.6V322.5z"/>
	<path class="st1" d="M892.1,322.5h-68.6v53.6h68.6V322.5z"/>
	<path class="st1" d="M960.7,322.5h-68.6v53.6h68.6V322.5z"/>
	<path class="st1" d="M1029.3,322.5h-68.6v53.6h68.6V322.5z"/>
	<path class="st1" d="M1097.9,322.5h-68.6v53.6h68.6V322.5z"/>
	<path class="st1" d="M1166.4,322.5h-68.6v53.6h68.6V322.5z"/>
	<path class="st1" d="M1235,322.5h-68.6v53.6h68.6V322.5z"/>
	<path class="st1" d="M1303.6,322.5H1235v53.6h68.6V322.5z"/>
	<path class="st1" d="M1372.2,322.5h-68.6v53.6h68.6V322.5z"/>
	<path class="st1" d="M1440.8,322.5h-68.6v53.6h68.6V322.5z"/>
	<path class="st1" d="M69.2,376.1H0.7v53.6h68.6V376.1z"/>
	<path class="st1" d="M137.8,376.1H69.2v53.6h68.6V376.1z"/>
	<path class="st1" d="M206.4,376.1h-68.6v53.6h68.6V376.1z"/>
	<path class="st1" d="M275,376.1h-68.6v53.6H275V376.1z"/>
	<path class="st1" d="M343.5,376.1H275v53.6h68.6V376.1z"/>
	<path class="st1" d="M412.1,376.1h-68.6v53.6h68.6V376.1z"/>
	<path class="st1" d="M480.7,376.1h-68.6v53.6h68.6V376.1z"/>
	<path class="st1" d="M549.3,376.1h-68.6v53.6h68.6V376.1z"/>
	<path class="st1" d="M617.8,376.1h-68.6v53.6h68.6V376.1z"/>
	<path class="st1" d="M686.4,376.1h-68.6v53.6h68.6V376.1z"/>
	<path class="st1" d="M755,376.1h-68.6v53.6H755V376.1z"/>
	<path class="st1" d="M823.6,376.1H755v53.6h68.6V376.1z"/>
	<path class="st1" d="M892.1,376.1h-68.6v53.6h68.6V376.1z"/>
	<path class="st1" d="M960.7,376.1h-68.6v53.6h68.6V376.1z"/>
	<path class="st1" d="M1029.3,376.1h-68.6v53.6h68.6V376.1z"/>
	<path class="st1" d="M1097.9,376.1h-68.6v53.6h68.6V376.1z"/>
	<path class="st1" d="M1166.4,376.1h-68.6v53.6h68.6V376.1z"/>
	<path class="st1" d="M1235,376.1h-68.6v53.6h68.6V376.1z"/>
	<path class="st1" d="M1303.6,376.1H1235v53.6h68.6V376.1z"/>
	<path class="st1" d="M1372.2,376.1h-68.6v53.6h68.6V376.1z"/>
	<path class="st1" d="M1440.8,376.1h-68.6v53.6h68.6V376.1z"/>
	<path class="st1" d="M69.2,429.7H0.7v53.6h68.6V429.7z"/>
	<path class="st1" d="M137.8,429.7H69.2v53.6h68.6V429.7z"/>
	<path class="st1" d="M206.4,429.7h-68.6v53.6h68.6V429.7z"/>
	<path class="st1" d="M275,429.7h-68.6v53.6H275V429.7z"/>
	<path class="st1" d="M343.5,429.7H275v53.6h68.6V429.7z"/>
	<path class="st1" d="M412.1,429.7h-68.6v53.6h68.6V429.7z"/>
	<path class="st1" d="M480.7,429.7h-68.6v53.6h68.6V429.7z"/>
	<path class="st1" d="M549.3,429.7h-68.6v53.6h68.6V429.7z"/>
	<path class="st1" d="M617.8,429.7h-68.6v53.6h68.6V429.7z"/>
	<path class="st1" d="M686.4,429.7h-68.6v53.6h68.6V429.7z"/>
	<path class="st1" d="M755,429.7h-68.6v53.6H755V429.7z"/>
	<path class="st1" d="M823.6,429.7H755v53.6h68.6V429.7z"/>
	<path class="st1" d="M892.1,429.7h-68.6v53.6h68.6V429.7z"/>
	<path class="st1" d="M960.7,429.7h-68.6v53.6h68.6V429.7z"/>
	<path class="st1" d="M1029.3,429.7h-68.6v53.6h68.6V429.7z"/>
	<path class="st1" d="M1097.9,429.7h-68.6v53.6h68.6V429.7z"/>
	<path class="st1" d="M1166.4,429.7h-68.6v53.6h68.6V429.7z"/>
	<path class="st1" d="M1235,429.7h-68.6v53.6h68.6V429.7z"/>
	<path class="st1" d="M1303.6,429.7H1235v53.6h68.6V429.7z"/>
	<path class="st1" d="M1372.2,429.7h-68.6v53.6h68.6V429.7z"/>
	<path class="st1" d="M1440.8,429.7h-68.6v53.6h68.6V429.7z"/>
	<path class="st1" d="M69.2,483.2H0.7v53.6h68.6V483.2z"/>
	<path class="st1" d="M137.8,483.2H69.2v53.6h68.6V483.2z"/>
	<path class="st1" d="M206.4,483.2h-68.6v53.6h68.6V483.2z"/>
	<path class="st1" d="M275,483.2h-68.6v53.6H275V483.2z"/>
	<path class="st1" d="M343.5,483.2H275v53.6h68.6V483.2z"/>
	<path class="st1" d="M412.1,483.2h-68.6v53.6h68.6V483.2z"/>
	<path class="st1" d="M480.7,483.2h-68.6v53.6h68.6V483.2z"/>
	<path class="st1" d="M549.3,483.2h-68.6v53.6h68.6V483.2z"/>
	<path class="st1" d="M617.8,483.2h-68.6v53.6h68.6V483.2z"/>
	<path class="st1" d="M686.4,483.2h-68.6v53.6h68.6V483.2z"/>
	<path class="st1" d="M755,483.2h-68.6v53.6H755V483.2z"/>
	<path class="st1" d="M823.6,483.2H755v53.6h68.6V483.2z"/>
	<path class="st1" d="M892.1,483.2h-68.6v53.6h68.6V483.2z"/>
	<path class="st1" d="M960.7,483.2h-68.6v53.6h68.6V483.2z"/>
	<path class="st1" d="M1029.3,483.2h-68.6v53.6h68.6V483.2z"/>
	<path class="st1" d="M1097.9,483.2h-68.6v53.6h68.6V483.2z"/>
	<path class="st1" d="M1166.4,483.2h-68.6v53.6h68.6V483.2z"/>
	<path class="st1" d="M1235,483.2h-68.6v53.6h68.6V483.2z"/>
	<path class="st1" d="M1303.6,483.2H1235v53.6h68.6V483.2z"/>
	<path class="st1" d="M1372.2,483.2h-68.6v53.6h68.6V483.2z"/>
	<path class="st1" d="M1440.8,483.2h-68.6v53.6h68.6V483.2z"/>
</g>
</svg>
