<svg width="412" height="147" viewBox="0 0 412 147" fill="none" xmlns="http://www.w3.org/2000/svg">
<path d="M110.137 30.4943V122.901H97.4076V30.4943H110.137Z" fill="#E8E3D3"/>
<path d="M116.501 105.867C116.501 91.1283 127.672 86.8625 144.167 83.6312C154.561 81.69 160.925 80.394 160.925 73.9313C160.925 69.1483 158.064 65.144 148.324 65.144C136.763 65.144 133.254 68.7589 132.606 77.5521H119.62C120.268 64.8824 128.577 54.9269 148.815 54.9269C162.455 54.9269 173.339 60.6166 173.339 77.6799V107.936C173.339 112.719 173.987 115.177 176.457 115.177C176.98 115.185 177.502 115.14 178.016 115.044V122.802C175.889 123.307 173.71 123.566 171.523 123.575C165.287 123.575 161.778 121.123 161.13 113.626H160.873C156.452 120.478 148.92 124.744 138.141 124.744C124.945 124.744 116.501 117.124 116.501 105.867ZM160.925 97.2016V87.7633C158.846 89.7045 153.13 91.1283 146.374 92.5522C134.696 95.0048 129.879 98.1083 129.879 104.96C129.879 111.167 133.125 114.526 141.049 114.526C152.482 114.526 160.925 108.709 160.925 97.2016Z" fill="#E8E3D3"/>
<path d="M212.227 65.5276C198.214 65.5276 193.005 77.5521 193.005 89.937C193.005 102.322 198.202 114.242 212.227 114.242C224.437 114.242 228.337 105.966 228.857 98.4686H242.106C241.195 113.579 229.26 124.842 212.362 124.842C192.614 124.842 179.756 110.621 179.756 89.937C179.756 69.2529 192.602 55.0258 212.227 55.0258C229.248 55.0258 240.547 66.0158 242.106 80.8823H228.857C228.337 74.0593 224.437 65.5276 212.227 65.5276Z" fill="#E8E3D3"/>
<path d="M260.68 56.9959V69.5377H260.937C264.318 61.2617 269.772 55.4442 278.735 55.4442C280.775 55.4308 282.814 55.5609 284.836 55.8335V67.986C283.421 67.738 281.988 67.6078 280.551 67.5966C268.995 67.5966 260.698 76.2619 260.698 88.7979V122.936H247.968V56.9959H260.68Z" fill="#E8E3D3"/>
<path d="M303.282 31.5287V45.2329H288.889V31.5287H303.282ZM302.505 56.9959V122.936H289.776V56.9959H302.505Z" fill="#E8E3D3"/>
<path d="M316.268 56.996V35.7947H329.003V56.996H341.732V67.4571H329.003V104.693C329.003 111.667 330.948 113.225 336.407 113.225C338.238 113.233 340.065 113.06 341.861 112.708V122.936C339.172 123.49 336.431 123.751 333.686 123.715C322.907 123.715 316.28 119.577 316.28 104.321V67.4746H306.669V57.0134L316.268 56.996Z" fill="#E8E3D3"/>
<path d="M346.923 56.9958H360.82L380.177 107.419H380.434L398.751 56.9958H412L385.893 124.482C379.395 140.755 373.047 146.073 362.771 146.073C360.021 146.064 357.28 145.76 354.596 145.166V134.827C356.405 135.079 358.229 135.209 360.056 135.216C365.252 135.216 371.097 132.63 373.824 122.285L346.923 56.9958Z" fill="#E8E3D3"/>
<path d="M0 123.314H14.1598L16.5363 115.102L2.65094 114.84L0 123.314Z" fill="#E8E3D3"/>
<path d="M88.976 123.314H74.3841L71.739 115.102L85.8054 114.962L88.976 123.314Z" fill="#E8E3D3"/>
<path d="M8.41413 0H74.2148V11.4085H8.41413V0Z" fill="#E8E3D3"/>
<path d="M74.2848 122.866L45.6733 36.3758C44.5463 32.9643 42.9757 31.9241 42.526 31.9241C42.0239 31.9241 40.3014 33.1329 39.2036 36.9105L14.3466 122.628L1.44223 118.92L26.305 33.2026C28.8918 24.3048 35.0111 18.6732 42.2866 18.557H42.5435C49.5504 18.557 55.6465 23.7876 58.4376 32.1972L87.0491 118.682L74.2848 122.866Z" fill="#E8E3D3"/>
</svg>
